<svg version="1.2" xmlns="http://www.w3.org/2000/svg" viewBox="0 0 1920 1080" width="1920" height="1080">
	<title>Proyecto nuevo</title>
	<style>
		.s0 { fill: #ffffff } 
	</style>
	<path id="  TRGLIX" class="s0" aria-label="  TRGLIX"  d=""/>
	<path id="TRGLIX" class="s0" aria-label="TRGLIX"  d="m325.3 299.6v-36.1q0-1.8 1.1-2.8 1.3-1.4 3.1-1.4h151.9q7 0 11.5 5.6l26 34q1.3 1.7 0.3 3.5-0.7 1.3-2.8 1.3h-78v196.4q0 4.2-4.3 4.2h-36q-4.2 0-4.2-4.2v-196.4h-64.4q-1.8 0-3.1-1-1.1-1.4-1.1-3.2zm221.6 200.6v-236.6q0-1.8 1-2.8 1.4-1.4 3.1-1.4h184.9q1.7 0 2.7 1.4 1.4 1 1.4 2.8v51.5q0 4.9-3.1 8.7l-55.3 72.4 79.1 103.3q1 1.7 0 3.5-0.7 1.4-2.5 1.4h-44.4q-7 0-11.6-5.6l-76.6-99.8q-2.5-2.8 0-5.2l68.9-90h-102.9v196.4q0 4.2-4.5 4.2h-36.1q-1.7 0-3.1-1.1-1-1.4-1-3.1zm220.1-118.7q0-26.9 9.8-50 10.2-23.4 26.9-40.3 17.2-17.1 40.3-26.6 23.1-9.8 49.7-9.4 25.5 0.3 47.9 9.8 22.4 9.1 39.3 25.6 2.7 2.7 0.3 5.5l-22.4 29.1q-1.1 1.7-3.2 2.1-1.7 0-3.1-1.7-11.2-13-27-20.7-15.7-7.7-33.5-7.3-16.5 0-31.2 7-14.7 7-25.6 18.5-10.8 11.5-17.1 27.3-6.3 15.4-6.3 32.9 0 17.1 6.7 32.5 6.6 15.4 17.8 27 11.2 11.5 25.9 18.2 14.7 6.6 31.5 6.6 13.7-0.3 25.9-5.2 12.6-4.9 22.8-13.3 10.5-8.4 17.8-19.6 7.3-11.6 10.8-24.9h-68.2q-1.8 0-2.8-1.4-0.7-1.7 0.4-3.5l22.3-32.9q4.6-6.2 11.9-6.2h83q1 5.9 1.4 11.5 0.7 5.6 0.3 11.5-0.3 26.6-10.5 49.7-9.8 23.1-27.3 40.3-17.1 17.1-40.2 26.9-23.1 9.5-49.7 9.5-26.2 0-49.3-9.8-22.8-10.2-39.6-27.3-16.8-17.5-26.2-41-9.5-23.4-9.5-50.4zm297.2-121.4h36q4.6 0 4.6 4.2v196.3h98q2.1 0 2.8 1.8 1 1.7 0 3.1l-26.3 34q-4.5 5.6-11.2 5.6h-103.9q-1.8 0-3.2-1.1-1-1.4-1-3.1v-236.6q0-1.7 1-2.8 1.4-1.4 3.2-1.4zm173.2 0h36.1q4.5 0 4.5 4.2v236.6q0 4.2-4.5 4.2h-36.1q-1.7 0-3.1-1.1-1.1-1.4-1.1-3.1v-236.6q0-1.7 1.1-2.8 1.4-1.4 3.1-1.4zm68.6 239.4l90.3-117.6-90.3-117.6q-1.4-1.4-0.3-3.2 1-1.7 2.8-1.7h44.4q7 0 11.6 5.6l60.9 79.1 60.5-79.1q4.6-5.6 11.6-5.6h44.4q2.1 0 2.8 1.7 1.1 1.8-0.3 3.2l-90.3 117.6 90.3 117.6q1.4 1.7 0.3 3.5-0.7 1.4-2.8 1.4h-44.4q-7 0-11.6-5.6l-60.5-79.1-60.9 79.1q-4.6 5.6-11.6 5.6h-44.4q-1.8 0-2.8-1.4-1.1-1.8 0.3-3.5z"/>
</svg>