<svg version="1.2" xmlns="http://www.w3.org/2000/svg" viewBox="0 0 1280 720" width="1280" height="720">
	<title>trglix logo</title>
	<style>
		.s0 { fill: #000000 } 
	</style>
	<path id="Text layer 1" class="s0" aria-label="trglix"  d="m368.7 286.9v-15.4q0-0.7 0.4-1.2 0.7-0.6 1.4-0.6h65.1q3 0 5 2.4l11 14.6q0.7 0.7 0.2 1.5-0.3 0.6-1.2 0.6h-33.5v84.1q0 1.8-1.7 1.8h-15.5q-1.8 0-1.8-1.8v-84.1h-27.6q-0.7 0-1.4-0.5-0.4-0.6-0.4-1.3zm94.9 85.9v-101.4q0-0.7 0.5-1.2 0.6-0.6 1.4-0.6h79.1q0.8 0 1.3 0.6 0.6 0.5 0.6 1.2v22.1q0 2-1.4 3.7l-23.7 31.1 33.9 44.2q0.5 0.8 0 1.5-0.3 0.6-1 0.6h-19.1q-3 0-4.9-2.4l-32.9-42.7q-1-1.2 0-2.3l29.6-38.5h-44.1v84.1q0 1.8-2 1.8h-15.4q-0.8 0-1.4-0.4-0.5-0.6-0.5-1.4zm94.4-50.8q0-11.6 4.2-21.5 4.3-10 11.6-17.2 7.3-7.4 17.2-11.4 9.9-4.2 21.3-4.1 11 0.2 20.6 4.2 9.6 3.9 16.7 11 1.3 1.2 0.2 2.4l-9.6 12.4q-0.4 0.7-1.3 0.9-0.8 0-1.4-0.7-4.8-5.6-11.5-8.9-6.8-3.3-14.5-3.1-7 0-13.3 3-6.3 3-10.9 7.9-4.7 5-7.4 11.7-2.7 6.6-2.7 14.1 0 7.4 2.8 14 2.9 6.6 7.7 11.5 4.8 5 11.1 7.8 6.3 2.9 13.5 2.9 5.8-0.2 11.1-2.3 5.4-2.1 9.7-5.7 4.5-3.6 7.7-8.4 3.2-4.9 4.7-10.6h-29.3q-0.7 0-1.2-0.6-0.3-0.8 0.1-1.5l9.7-14.1q1.9-2.7 5.1-2.7h35.5q0.5 2.5 0.6 4.9 0.3 2.4 0.1 5-0.1 11.4-4.5 21.3-4.1 9.8-11.6 17.2-7.4 7.4-17.3 11.6-9.9 4-21.3 4-11.3 0-21.1-4.2-9.8-4.3-17-11.7-7.2-7.5-11.3-17.6-4-10-4-21.5zm127.4-52.1h15.4q2 0 2 1.8v84.2h42q0.9 0 1.2 0.7 0.4 0.8 0 1.4l-11.3 14.5q-1.9 2.4-4.8 2.4h-44.5q-0.8 0-1.4-0.4-0.5-0.6-0.5-1.4v-101.4q0-0.7 0.5-1.2 0.6-0.6 1.4-0.6zm74.2 0h15.4q2 0 2 1.8v101.4q0 1.8-2 1.8h-15.4q-0.7 0-1.3-0.4-0.5-0.6-0.5-1.4v-101.4q0-0.7 0.5-1.2 0.6-0.6 1.3-0.6zm29.4 102.6l38.7-50.4-38.7-50.4q-0.6-0.6-0.1-1.3 0.4-0.8 1.1-0.8h19.1q3 0 4.9 2.4l26.2 33.9 25.9-33.9q1.9-2.4 4.9-2.4h19.1q0.9 0 1.2 0.8 0.5 0.7-0.1 1.3l-38.7 50.4 38.7 50.4q0.6 0.8 0.1 1.5-0.3 0.6-1.2 0.6h-19.1q-3 0-4.9-2.4l-25.9-33.9-26.2 33.9q-1.9 2.4-4.9 2.4h-19.1q-0.7 0-1.1-0.6-0.5-0.7 0.1-1.5z"/>
</svg>